<svg xmlns="http://www.w3.org/2000/svg" viewBox="0 0 160 120"><defs><radialGradient id="b"><stop stop-color="#db8b49"/><stop offset="1" stop-color="#67392c"/></radialGradient></defs><rect width="160" height="120" fill="#141d29"/><circle cx="80" cy="52" r="77" fill="url(#b)" opacity=".65"/><g stroke="#f5d79a" opacity=".09" stroke-width="11"><path d="M80 75L45 0"/><path d="M80 75L106 0"/><path d="M80 75L7 0"/><path d="M80 75L68 0"/><path d="M80 75L129 0"/><path d="M80 75L30 0"/><path d="M80 75L91 0"/><path d="M80 75L152 0"/><path d="M80 75L53 0"/><path d="M80 75L114 0"/><path d="M80 75L15 0"/></g><path d="M0 102L16 96L27 105L43 98L66 110L88 101L112 108L142 97L160 105V120H0Z" fill="#111923"/><path d="M35 116L41 84L64 75L96 75L121 87L126 116Z" fill="#67392c" stroke="#db8b49" stroke-width="3"/><path d="M62 45Q79 28 98 48L97 77L80 87L63 76Z" fill="#ba9074" stroke="#18202a" stroke-width="2"/><path d="M56 49Q55 16 81 21Q108 22 105 55L93 45L78 42L67 54Z" fill="#67392c" stroke="#f5d79a" stroke-width="2"/><path d="M68 59L76 61M87 60L95 57" stroke="#1c222b" stroke-width="4"/><path d="M72 72L91 71" stroke="#754d3b" stroke-width="2"/><path d="M62 88L80 102L99 88M47 106L112 106" stroke="#db8b49" stroke-width="4"/><path d="M119 115L131 33" stroke="#db8b49" stroke-width="5"/><circle cx="132" cy="28" r="10" fill="#f5d79a"/><path d="M62 78L80 98L95 77" fill="#db8b49"/><circle cx="80" cy="32" r="6" fill="#f5d79a"/><path d="M0 118H160" stroke="#f5d79a" opacity=".35" stroke-width="3"/></svg>