<svg xmlns="http://www.w3.org/2000/svg" viewBox="0 0 160 120"><defs><radialGradient id="b"><stop stop-color="#db8b49"/><stop offset="1" stop-color="#67392c"/></radialGradient></defs><rect width="160" height="120" fill="#141d29"/><circle cx="80" cy="52" r="77" fill="url(#b)" opacity=".65"/><g stroke="#f5d79a" opacity=".09" stroke-width="11"><path d="M80 75L70 0"/><path d="M80 75L131 0"/><path d="M80 75L32 0"/><path d="M80 75L93 0"/><path d="M80 75L154 0"/><path d="M80 75L55 0"/><path d="M80 75L116 0"/><path d="M80 75L17 0"/><path d="M80 75L78 0"/><path d="M80 75L139 0"/><path d="M80 75L40 0"/></g><path d="M0 102L16 96L27 105L43 98L66 110L88 101L112 108L142 97L160 105V120H0Z" fill="#111923"/><g fill="#db8b49" stroke="#f5d79a" stroke-width="2"><path d="M99 17L62 64L78 66L61 104L103 55L85 53Z"/></g><circle cx="81" cy="62" r="45" fill="none" stroke="#f5d79a" opacity=".3" stroke-dasharray="5 9"/><path d="M0 118H160" stroke="#f5d79a" opacity=".35" stroke-width="3"/></svg>